<svg width="539" height="354" viewBox="0 0 539 354" fill="none" xmlns="http://www.w3.org/2000/svg">
<path d="M527.701 197.774C513.82 181.232 494.717 169.912 473.541 165.681C452.365 161.449 430.38 164.559 411.207 174.497C392.035 184.435 376.821 200.608 368.072 220.351C359.323 240.094 357.562 262.228 363.078 283.106C363.165 283.436 364.122 283.339 363.997 282.864C358.536 262.194 360.279 240.281 368.941 220.736C377.602 201.19 392.664 185.179 411.645 175.34C430.625 165.502 452.391 162.423 473.355 166.612C494.319 170.801 513.231 182.008 526.973 198.385C527.426 198.339 528.213 198.385 527.701 197.774Z" fill="#F5803E" stroke="#F5803E" stroke-width="10"/>
<path d="M333.99 71.0449C332.63 67.7139 333.902 63.8694 336.986 62.0169V62.0169C340.895 59.6693 345.976 61.4367 347.617 65.6909C379.941 149.487 406.018 193.141 460.284 253.64C463.337 257.044 462.56 262.401 458.64 264.755V264.755C455.597 266.583 451.66 265.918 449.378 263.198C393.662 196.773 367.408 152.873 333.99 71.0449Z" fill="#F5803E"/>
<path d="M348.125 73.9948L348.27 74.2174L348.535 74.2216L397.488 74.9999C397.489 74.9999 397.489 74.9999 397.49 74.9999C402.702 75.1242 406.545 76.0247 408.878 77.3321C410.042 77.9847 410.795 78.7188 411.177 79.4727C411.552 80.2106 411.593 81.0074 411.261 81.8614C410.576 83.6232 408.287 85.648 403.972 87.5452C399.688 89.4285 393.514 91.1395 385.245 92.3456L385.181 92.355L385.121 92.3805C382.671 93.4264 381.165 94.9641 380.537 96.6533C379.908 98.346 380.188 100.126 381.187 101.576C383.187 104.481 387.947 105.966 393.975 103.373C405.089 100.041 413.322 97.1699 418.441 93.3323C421.017 91.4006 422.829 89.2078 423.818 86.5688C424.806 83.932 424.956 80.8975 424.29 77.3115C423.659 73.9082 421.689 70.8821 418.898 68.8525C410.454 62.7121 400.261 60.9678 379.652 61.6499H341H340.077L340.581 62.423L348.125 73.9948Z" fill="#F5803E" stroke="#F5803E"/>
<path d="M386 108C380.736 109.78 375.236 94.2802 380.5 92.5L406.937 85.4292L411.507 97.9038L386 108Z" fill="#1A373B"/>
<path d="M226.2 218.275C226.343 214.181 229.168 211.547 233.261 211.69L286.107 261.989L269.446 263.261L226.2 218.275Z" fill="#1B3A3E"/>
<rect x="191" y="200" width="60" height="20" rx="10" fill="#F5803E"/>
<rect x="183" y="108" width="180" height="15" rx="7.5" fill="#F5803E"/>
<g filter="url(#filter0_f_103_7)">
<rect x="184" y="110" width="178" height="12" rx="6" fill="#F5803E"/>
</g>
<rect x="199" y="111" width="151" height="9" rx="4.5" fill="#EC8C56"/>
<rect x="82" y="252" width="200" height="15" rx="7.5" fill="#F5803E"/>
<rect x="186.857" y="104.683" width="15" height="189.863" rx="7.5" transform="rotate(34.6163 186.857 104.683)" fill="#F5803E"/>
<rect x="355.639" y="106.012" width="15" height="179.673" rx="7.5" transform="rotate(30.1156 355.639 106.012)" fill="#F5803E"/>
<path d="M160.051 74.1616C158.353 71.333 159.269 67.6634 162.098 65.9648V65.9648C164.944 64.2555 168.638 65.1944 170.322 68.0552L264.5 228L253 229L160.051 74.1616Z" fill="#F5803E"/>
<circle cx="277.5" cy="259.5" r="32.5" fill="#1B3A3E"/>
<path d="M276.614 231.431C276.715 230.355 278.285 230.355 278.386 231.431V231.431C278.48 232.44 279.919 232.53 280.139 231.541V231.541C280.374 230.487 281.931 230.684 281.897 231.763V231.763C281.864 232.776 283.28 233.046 283.623 232.092V232.092C283.988 231.076 285.508 231.466 285.338 232.533V232.533C285.179 233.534 286.55 233.979 287.01 233.076V233.076C287.499 232.113 288.958 232.691 288.656 233.728V233.728C288.373 234.701 289.677 235.315 290.246 234.476V234.476C290.853 233.582 292.228 234.338 291.799 235.329V235.329C291.395 236.259 292.613 237.032 293.282 236.271V236.271C293.996 235.46 295.266 236.383 294.715 237.312V237.312C294.199 238.184 295.309 239.103 296.069 238.432V238.432C296.879 237.717 298.023 238.792 297.36 239.644V239.644C296.739 240.445 297.725 241.496 298.563 240.925V240.925C299.456 240.318 300.456 241.527 299.692 242.29V242.29C298.975 243.006 299.822 244.173 300.725 243.712V243.712C301.687 243.221 302.528 244.546 301.674 245.207V245.207C300.873 245.828 301.567 247.091 302.521 246.747V246.747C303.537 246.381 304.205 247.801 303.275 248.35V248.35C302.402 248.865 302.933 250.206 303.922 249.984V249.984C304.976 249.748 305.461 251.24 304.469 251.668V251.668C303.539 252.07 303.897 253.466 304.906 253.37V253.37C305.981 253.268 306.275 254.81 305.238 255.11V255.11C304.265 255.392 304.445 256.822 305.458 256.854V256.854C306.538 256.887 306.636 258.453 305.57 258.621V258.621C304.568 258.779 304.568 260.221 305.57 260.379V260.379C306.636 260.547 306.538 262.113 305.458 262.146V262.146C304.445 262.178 304.265 263.608 305.238 263.89V263.89C306.275 264.19 305.981 265.732 304.906 265.63V265.63C303.897 265.534 303.539 266.93 304.469 267.332V267.332C305.461 267.76 304.976 269.252 303.922 269.016V269.016C302.933 268.794 302.402 270.135 303.275 270.65V270.65C304.205 271.199 303.537 272.619 302.521 272.253V272.253C301.567 271.909 300.873 273.172 301.674 273.793V273.793C302.528 274.454 301.687 275.779 300.725 275.288V275.288C299.822 274.827 298.975 275.993 299.692 276.71V276.71C300.456 277.473 299.456 278.682 298.563 278.074V278.074C297.725 277.504 296.739 278.555 297.36 279.355V279.355C298.023 280.208 296.879 281.283 296.069 280.568V280.568C295.309 279.897 294.199 280.816 294.715 281.688V281.688C295.266 282.617 293.996 283.54 293.282 282.729V282.729C292.613 281.968 291.396 282.741 291.799 283.671V283.671C292.228 284.662 290.853 285.418 290.246 284.524V284.524C289.677 283.685 288.373 284.299 288.656 285.272V285.272C288.958 286.309 287.499 286.887 287.01 285.924V285.924C286.55 285.021 285.179 285.466 285.338 286.467V286.467C285.508 287.534 283.988 287.924 283.623 286.908V286.908C283.28 285.954 281.864 286.224 281.897 287.237V287.237C281.931 288.316 280.374 288.513 280.139 287.459V287.459C279.919 286.47 278.48 286.56 278.386 287.569V287.569C278.285 288.645 276.715 288.645 276.614 287.569V287.569C276.52 286.56 275.081 286.47 274.861 287.459V287.459C274.626 288.513 273.069 288.316 273.103 287.237V287.237C273.136 286.224 271.72 285.954 271.377 286.908V286.908C271.012 287.924 269.492 287.534 269.662 286.467V286.467C269.821 285.466 268.45 285.021 267.99 285.924V285.924C267.501 286.887 266.042 286.309 266.344 285.272V285.272C266.627 284.299 265.323 283.685 264.754 284.524V284.524C264.147 285.418 262.772 284.662 263.201 283.671V283.671C263.605 282.741 262.387 281.968 261.718 282.729V282.729C261.004 283.54 259.734 282.617 260.285 281.688V281.688C260.801 280.816 259.691 279.897 258.931 280.568V280.568C258.121 281.283 256.977 280.208 257.64 279.355V279.355C258.261 278.555 257.275 277.504 256.437 278.074V278.074C255.544 278.682 254.544 277.473 255.308 276.71V276.71C256.025 275.993 255.178 274.827 254.275 275.288V275.288C253.313 275.779 252.472 274.454 253.326 273.793V273.793C254.127 273.172 253.433 271.909 252.479 272.253V272.253C251.463 272.619 250.795 271.199 251.725 270.65V270.65C252.598 270.135 252.067 268.794 251.078 269.016V269.016C250.024 269.252 249.539 267.76 250.531 267.332V267.332C251.461 266.93 251.103 265.534 250.094 265.63V265.63C249.019 265.732 248.725 264.19 249.762 263.89V263.89C250.735 263.608 250.555 262.178 249.542 262.146V262.146C248.462 262.113 248.364 260.547 249.43 260.379V260.379C250.432 260.221 250.432 258.779 249.43 258.621V258.621C248.364 258.453 248.462 256.887 249.542 256.854V256.854C250.555 256.822 250.735 255.392 249.762 255.11V255.11C248.725 254.81 249.019 253.268 250.094 253.37V253.37C251.103 253.466 251.461 252.07 250.531 251.668V251.668C249.539 251.24 250.024 249.748 251.078 249.984V249.984C252.067 250.206 252.598 248.865 251.725 248.35V248.35C250.795 247.801 251.463 246.381 252.479 246.747V246.747C253.433 247.091 254.127 245.828 253.326 245.207V245.207C252.472 244.546 253.313 243.221 254.275 243.712V243.712C255.178 244.173 256.025 243.006 255.308 242.29V242.29C254.544 241.527 255.544 240.318 256.437 240.925V240.925C257.275 241.496 258.261 240.445 257.64 239.644V239.644C256.977 238.792 258.121 237.717 258.931 238.432V238.432C259.691 239.103 260.801 238.184 260.285 237.312V237.312C259.734 236.383 261.004 235.46 261.718 236.271V236.271C262.387 237.032 263.605 236.259 263.201 235.329V235.329C262.772 234.338 264.147 233.582 264.754 234.476V234.476C265.323 235.315 266.627 234.701 266.344 233.728V233.728C266.042 232.691 267.501 232.113 267.99 233.076V233.076C268.45 233.979 269.821 233.534 269.662 232.533V232.533C269.492 231.466 271.012 231.076 271.377 232.092V232.092C271.72 233.046 273.136 232.776 273.103 231.763V231.763C273.069 230.684 274.626 230.487 274.861 231.541V231.541C275.081 232.53 276.52 232.44 276.614 231.431V231.431Z" fill="#4CBBC9"/>
<circle cx="277.5" cy="259.5" r="7.5" fill="#1B3A3E"/>
<ellipse cx="163.021" cy="70.3518" rx="12" ry="3.5" transform="rotate(-32.1699 163.021 70.3518)" fill="#919190"/>
<g filter="url(#filter1_i_103_7)">
<path d="M228.916 48.005C189.198 45.298 163.064 33.4207 131.029 41.6276C129.591 41.9962 128.392 43.02 127.874 44.4115C121.983 60.2067 126.993 78.5219 145.633 83.5145C147.328 83.9684 149.108 83.3244 150.296 82.0332C172.263 58.1534 190.622 55.3072 228.088 57.4684C234.146 56.9984 236.028 55.6979 232.682 50.1893C231.887 48.8797 230.445 48.1092 228.916 48.005Z" fill="#1B3A3E"/>
</g>
<path d="M271.482 260.478C271.625 256.384 274.449 253.75 278.543 253.893L331.389 304.193L314.727 305.464L271.482 260.478Z" fill="#1B3A3E"/>
<rect x="288" y="298" width="60" height="20" rx="10" fill="#F5803E"/>
<defs>
<filter id="filter0_f_103_7" x="180" y="106" width="186" height="20" filterUnits="userSpaceOnUse" color-interpolation-filters="sRGB">
<feFlood flood-opacity="0" result="BackgroundImageFix"/>
<feBlend mode="normal" in="SourceGraphic" in2="BackgroundImageFix" result="shape"/>
<feGaussianBlur stdDeviation="2" result="effect1_foregroundBlur_103_7"/>
</filter>
<filter id="filter1_i_103_7" x="125.538" y="38.7811" width="112.787" height="48.8784" filterUnits="userSpaceOnUse" color-interpolation-filters="sRGB">
<feFlood flood-opacity="0" result="BackgroundImageFix"/>
<feBlend mode="normal" in="SourceGraphic" in2="BackgroundImageFix" result="shape"/>
<feColorMatrix in="SourceAlpha" type="matrix" values="0 0 0 0 0 0 0 0 0 0 0 0 0 0 0 0 0 0 127 0" result="hardAlpha"/>
<feOffset dx="10" dy="4"/>
<feGaussianBlur stdDeviation="2"/>
<feComposite in2="hardAlpha" operator="arithmetic" k2="-1" k3="1"/>
<feColorMatrix type="matrix" values="0 0 0 0 0 0 0 0 0 0 0 0 0 0 0 0 0 0 0.25 0"/>
<feBlend mode="normal" in2="shape" result="effect1_innerShadow_103_7"/>
</filter>
</defs>
</svg>
