<svg width="192" height="192" viewBox="0 0 192 192" fill="none" xmlns="http://www.w3.org/2000/svg">
<path d="M101.516 6.9926L99.4517 6.25678C97.1717 5.44407 94.6809 5.44407 92.4009 6.25678L90.3366 6.9926L88.1963 6.52131C85.8324 6.00078 83.3612 6.31295 81.201 7.40501L79.2452 8.39376L77.0627 8.19444C74.6522 7.97429 72.2397 8.59372 70.2334 9.94791L68.4169 11.174L66.2267 11.2498C63.8076 11.3335 61.4917 12.2504 59.671 13.8454L58.0225 15.2894L55.859 15.6391C53.4695 16.0254 51.2868 17.2253 49.6803 19.0359L48.2258 20.6752L46.1232 21.2933C43.801 21.976 41.7859 23.44 40.419 25.4377L39.1814 27.2463L37.1729 28.1231C34.9545 29.0914 33.1388 30.7965 32.0331 32.9497L31.0319 34.8992L29.1491 36.0208C27.0696 37.2596 25.4819 39.1787 24.6548 41.4536L23.9059 43.5132L22.1785 44.8619C20.2706 46.3515 18.9359 48.4546 18.4004 50.8151L17.9156 52.9524L16.3708 54.5069C14.6647 56.2239 13.6042 58.4776 13.3687 60.8867L13.1556 63.0679L11.8179 64.8038C10.3404 66.7211 9.57067 69.09 9.63903 71.5095L9.70093 73.7002L8.59133 75.5901C7.36578 77.6774 6.89905 80.1241 7.27013 82.516L7.6061 84.6817L6.74211 86.6957C5.78784 88.9202 5.63144 91.4061 6.29938 93.7327L6.90413 95.8391L6.29938 97.9456C5.63144 100.272 5.78784 102.758 6.74211 104.982L7.6061 106.997L7.27013 109.162C6.89905 111.554 7.36578 114.001 8.59132 116.088L9.70093 117.978L9.63903 120.169C9.57067 122.588 10.3404 124.957 11.8179 126.874L13.1556 128.61L13.3687 130.792C13.6042 133.201 14.6647 135.454 16.3708 137.171L17.9156 138.726L18.4004 140.863C18.9359 143.224 20.2706 145.327 22.1785 146.816L23.9059 148.165L24.6548 150.225C25.4819 152.499 27.0696 154.419 29.1491 155.657L31.0319 156.779L32.0331 158.729C33.1388 160.882 34.9545 162.587 37.1729 163.555L39.1814 164.432L40.419 166.241C41.7859 168.238 43.801 169.702 46.1233 170.385L48.2258 171.003L49.6803 172.642C51.2868 174.453 53.4695 175.653 55.859 176.039L58.0225 176.389L59.671 177.833C61.4917 179.428 63.8076 180.345 66.2267 180.428L68.417 180.504L70.2334 181.73C72.2397 183.085 74.6522 183.704 77.0627 183.484L79.2452 183.284L81.201 184.273C83.3612 185.365 85.8324 185.677 88.1963 185.157L90.3365 184.686L92.4009 185.421C94.6809 186.234 97.1717 186.234 99.4517 185.421L101.516 184.686L103.656 185.157C106.02 185.677 108.491 185.365 110.652 184.273L112.607 183.284L114.79 183.484C117.2 183.704 119.613 183.085 121.619 181.73L123.436 180.504L125.626 180.428C128.045 180.345 130.361 179.428 132.182 177.833L133.83 176.389L135.994 176.039C138.383 175.653 140.566 174.453 142.172 172.642L143.627 171.003L145.729 170.385C148.052 169.702 150.067 168.238 151.434 166.241L152.671 164.432L154.68 163.555C156.898 162.587 158.714 160.882 159.82 158.728L160.821 156.779L162.703 155.657C164.783 154.419 166.371 152.499 167.198 150.225L167.947 148.165L169.674 146.816C171.582 145.327 172.917 143.224 173.452 140.863L173.937 138.726L175.482 137.171C177.188 135.454 178.248 133.201 178.484 130.791L178.697 128.61L180.035 126.874C181.512 124.957 182.282 122.588 182.214 120.169L182.152 117.978L183.261 116.088C184.487 114.001 184.954 111.554 184.582 109.162L184.247 106.997L185.111 104.982C186.065 102.758 186.221 100.272 185.553 97.9456L184.948 95.8391L185.553 93.7327C186.221 91.4061 186.065 88.9202 185.111 86.6957L184.247 84.6817L184.582 82.516C184.954 80.1241 184.487 77.6774 183.261 75.5901L182.152 73.7002L182.214 71.5095C182.282 69.09 181.512 66.7211 180.035 64.8038L178.697 63.0679L178.484 60.8867C178.248 58.4777 177.188 56.2239 175.482 54.5069L173.937 52.9524L173.452 50.8151C172.917 48.4546 171.582 46.3515 169.674 44.8619L167.947 43.5132L167.198 41.4536C166.371 39.1787 164.783 37.2596 162.703 36.0208L160.821 34.8992L159.82 32.9497C158.714 30.7965 156.898 29.0914 154.68 28.1231L152.671 27.2464L151.434 25.4377C150.067 23.44 148.052 21.976 145.729 21.2933L143.627 20.6752L142.172 19.0359C140.566 17.2253 138.383 16.0254 135.994 15.6391L133.83 15.2894L132.182 13.8454C130.361 12.2504 128.045 11.3335 125.626 11.2498L123.436 11.174L121.619 9.94791C119.613 8.59372 117.2 7.97429 114.79 8.19444L112.607 8.39376L110.652 7.40501C108.491 6.31296 106.02 6.00078 103.656 6.52131L101.516 6.9926Z" fill="#FFF8DC" stroke="black" stroke-width="11"/>
<g filter="url(#filter0_f_5_29)">
<circle cx="95.9263" cy="95.8391" r="83" stroke="#646464" stroke-width="6"/>
</g>
<g filter="url(#filter1_d_5_29)">
<circle cx="95.9263" cy="95.8391" r="80" stroke="#A7A7A7" stroke-width="10" shape-rendering="crispEdges"/>
</g>
<g filter="url(#filter2_f_5_29)">
<circle cx="95.9263" cy="95.8391" r="75.5" stroke="#6F6E6D" stroke-width="3"/>
</g>
<g filter="url(#filter3_d_5_29)">
<circle cx="95.9263" cy="95.8391" r="15" stroke="#1B3A3E" stroke-width="10" shape-rendering="crispEdges"/>
</g>
<line x1="96.4263" y1="22.3391" x2="96.4263" y2="171.339" stroke="#1B3A3E" stroke-linecap="round"/>
<line x1="67.2771" y1="28.0661" x2="125.496" y2="165.221" stroke="#1B3A3E" stroke-linecap="round"/>
<line x1="148.959" y1="44.5132" x2="43.6004" y2="149.872" stroke="#1B3A3E" stroke-linecap="round"/>
<line x1="123.091" y1="27.4665" x2="69.6946" y2="166.57" stroke="#1B3A3E" stroke-linecap="round"/>
<line x1="43.6004" y1="43.8061" x2="148.959" y2="149.165" stroke="#1B3A3E" stroke-linecap="round"/>
<line x1="21.4264" y1="96.3391" x2="170.426" y2="96.3391" stroke="#1B3A3E" stroke-linecap="round"/>
<line x1="27.0385" y1="68.4673" x2="165.189" y2="124.284" stroke="#1B3A3E" stroke-linecap="round"/>
<line x1="26.6639" y1="124.284" x2="164.814" y2="68.4673" stroke="#1B3A3E" stroke-linecap="round"/>
<g filter="url(#filter4_f_5_29)">
<circle cx="95.9263" cy="95.8391" r="10" fill="#1B3A3E"/>
</g>
<defs>
<filter id="filter0_f_5_29" x="5.92632" y="5.83911" width="180" height="180" filterUnits="userSpaceOnUse" color-interpolation-filters="sRGB">
<feFlood flood-opacity="0" result="BackgroundImageFix"/>
<feBlend mode="normal" in="SourceGraphic" in2="BackgroundImageFix" result="shape"/>
<feGaussianBlur stdDeviation="2" result="effect1_foregroundBlur_5_29"/>
</filter>
<filter id="filter1_d_5_29" x="10.9263" y="10.8391" width="180" height="178" filterUnits="userSpaceOnUse" color-interpolation-filters="sRGB">
<feFlood flood-opacity="0" result="BackgroundImageFix"/>
<feColorMatrix in="SourceAlpha" type="matrix" values="0 0 0 0 0 0 0 0 0 0 0 0 0 0 0 0 0 0 127 0" result="hardAlpha"/>
<feOffset dx="6" dy="4"/>
<feGaussianBlur stdDeviation="2"/>
<feComposite in2="hardAlpha" operator="out"/>
<feColorMatrix type="matrix" values="0 0 0 0 0 0 0 0 0 0 0 0 0 0 0 0 0 0 0.25 0"/>
<feBlend mode="normal" in2="BackgroundImageFix" result="effect1_dropShadow_5_29"/>
<feBlend mode="normal" in="SourceGraphic" in2="effect1_dropShadow_5_29" result="shape"/>
</filter>
<filter id="filter2_f_5_29" x="14.9263" y="14.8391" width="162" height="162" filterUnits="userSpaceOnUse" color-interpolation-filters="sRGB">
<feFlood flood-opacity="0" result="BackgroundImageFix"/>
<feBlend mode="normal" in="SourceGraphic" in2="BackgroundImageFix" result="shape"/>
<feGaussianBlur stdDeviation="2" result="effect1_foregroundBlur_5_29"/>
</filter>
<filter id="filter3_d_5_29" x="71.9263" y="75.8391" width="48" height="48" filterUnits="userSpaceOnUse" color-interpolation-filters="sRGB">
<feFlood flood-opacity="0" result="BackgroundImageFix"/>
<feColorMatrix in="SourceAlpha" type="matrix" values="0 0 0 0 0 0 0 0 0 0 0 0 0 0 0 0 0 0 127 0" result="hardAlpha"/>
<feOffset dy="4"/>
<feGaussianBlur stdDeviation="2"/>
<feComposite in2="hardAlpha" operator="out"/>
<feColorMatrix type="matrix" values="0 0 0 0 0 0 0 0 0 0 0 0 0 0 0 0 0 0 0.25 0"/>
<feBlend mode="normal" in2="BackgroundImageFix" result="effect1_dropShadow_5_29"/>
<feBlend mode="normal" in="SourceGraphic" in2="effect1_dropShadow_5_29" result="shape"/>
</filter>
<filter id="filter4_f_5_29" x="81.9263" y="81.8391" width="28" height="28" filterUnits="userSpaceOnUse" color-interpolation-filters="sRGB">
<feFlood flood-opacity="0" result="BackgroundImageFix"/>
<feBlend mode="normal" in="SourceGraphic" in2="BackgroundImageFix" result="shape"/>
<feGaussianBlur stdDeviation="2" result="effect1_foregroundBlur_5_29"/>
</filter>
</defs>
</svg>
